HIERARCHY
ROOT Hips
{
	OFFSET 0.000000 0.000000 0.000000
	CHANNELS 6 Xposition Yposition Zposition Zrotation Yrotation Xrotation 
	JOINT LHipJoint
	{
		OFFSET 0.000000 0.000000 0.000000
		CHANNELS 3 Zrotation Yrotation Xrotation
		JOINT LeftUpLeg
		{
			OFFSET 1.363060 -1.794630 0.839290
			CHANNELS 3 Zrotation Yrotation Xrotation
			JOINT LeftLeg
			{
				OFFSET 2.448110 -6.726130 0.000000
				CHANNELS 3 Zrotation Yrotation Xrotation
				JOINT LeftFoot
				{
					OFFSET 2.562200 -7.039590 0.000000
					CHANNELS 3 Zrotation Yrotation Xrotation
					JOINT LeftToeBase
					{
						OFFSET 0.157640 -0.433110 2.322550
						CHANNELS 3 Zrotation Yrotation Xrotation
						End Site
						{
							OFFSET 0.000000 0.000000 0.000000
						}
					}
				}
			}
		}
	}
	JOINT RHipJoint
	{
		OFFSET 0.000000 0.000000 0.000000
		CHANNELS 3 Zrotation Yrotation Xrotation
		JOINT RightUpLeg
		{
			OFFSET -1.305520 -1.794630 0.839290
			CHANNELS 3 Zrotation Yrotation Xrotation
			JOINT RightLeg
			{
				OFFSET -2.542530 -6.985550 0.000000
				CHANNELS 3 Zrotation Yrotation Xrotation
				JOINT RightFoot
				{
					OFFSET -2.568260 -7.056230 0.000000
					CHANNELS 3 Zrotation Yrotation Xrotation
					JOINT RightToeBase
					{
						OFFSET -0.164730 -0.452590 2.363150
						CHANNELS 3 Zrotation Yrotation Xrotation
						End Site
						{
							OFFSET 0.000000 0.000000 0.000000
						}
					}
				}
			}
		}
	}
	JOINT LowerBack
	{
		OFFSET 0.000000 0.000000 0.000000
		CHANNELS 3 Zrotation Yrotation Xrotation
		JOINT Spine
		{
			OFFSET 0.028270 2.035590 -0.193380
			CHANNELS 3 Zrotation Yrotation Xrotation
			JOINT Spine1
			{
				OFFSET 0.056720 2.048850 -0.042750
				CHANNELS 3 Zrotation Yrotation Xrotation
				JOINT Neck
				{
					OFFSET 0.000000 0.000000 0.000000
					CHANNELS 3 Zrotation Yrotation Xrotation
					JOINT Neck1
					{
						OFFSET -0.054170 1.746240 0.172020
						CHANNELS 3 Zrotation Yrotation Xrotation
						JOINT Head
						{
							OFFSET 0.104070 1.761360 -0.123970
							CHANNELS 3 Zrotation Yrotation Xrotation
							End Site
							{
								OFFSET 0.000000 0.000000 0.000000
							}
						}
					}
				}
				JOINT LeftShoulder
				{
					OFFSET 0.000000 0.000000 0.000000
					CHANNELS 3 Zrotation Yrotation Xrotation
					JOINT LeftArm
					{
						OFFSET 3.362410 1.200890 -0.311210
						CHANNELS 3 Zrotation Yrotation Xrotation
						JOINT LeftForeArm
						{
							OFFSET 4.983000 -0.000000 -0.000000
							CHANNELS 3 Zrotation Yrotation Xrotation
							JOINT LeftHand
							{
								OFFSET 3.483560 -0.000000 -0.000000
								CHANNELS 3 Zrotation Yrotation Xrotation
								JOINT LeftFingerBase
								{
									OFFSET 0.000000 0.000000 0.000000
									CHANNELS 3 Zrotation Yrotation Xrotation
									JOINT LeftHandIndex1
									{
										OFFSET 0.715260 -0.000000 -0.000000
										CHANNELS 3 Zrotation Yrotation Xrotation
										End Site
										{
											OFFSET 0.000000 0.000000 0.000000
										}
									}
								}
								JOINT LThumb
								{
									OFFSET 0.000000 0.000000 0.000000
									CHANNELS 3 Zrotation Yrotation Xrotation
									End Site
									{
										OFFSET 0.000000 0.000000 0.000000
									}
								}
							}
						}
					}
				}
				JOINT RightShoulder
				{
					OFFSET 0.000000 0.000000 0.000000
					CHANNELS 3 Zrotation Yrotation Xrotation
					JOINT RightArm
					{
						OFFSET -3.136600 1.374050 -0.404650
						CHANNELS 3 Zrotation Yrotation Xrotation
						JOINT RightForeArm
						{
							OFFSET -5.241900 -0.000000 -0.000000
							CHANNELS 3 Zrotation Yrotation Xrotation
							JOINT RightHand
							{
								OFFSET -3.444170 -0.000000 -0.000000
								CHANNELS 3 Zrotation Yrotation Xrotation
								JOINT RightFingerBase
								{
									OFFSET 0.000000 0.000000 0.000000
									CHANNELS 3 Zrotation Yrotation Xrotation
									JOINT RightHandIndex1
									{
										OFFSET -0.622530 -0.000000 -0.000000
										CHANNELS 3 Zrotation Yrotation Xrotation
										End Site
										{
											OFFSET 0.000000 0.000000 0.000000
										}
									}
								}
								JOINT RThumb
								{
									OFFSET 0.000000 0.000000 0.000000
									CHANNELS 3 Zrotation Yrotation Xrotation
									End Site
									{
										OFFSET 0.000000 0.000000 0.000000
									}
								}
							}
						}
					}
				}
			}
		}
	}
}
MOTION
Frames: 10
Frame Time: 0.008333
7.038327 21.142251 1.122100 67.675616 -84.703003 -30.264874 -11.126545 0.580187 2.854981 -12.055557 -4.200951 -61.005088 3.413058 4.551004 92.086097 2.599682 14.174951 -0.821171 1.738600 0.000000 -48.843800 12.351833 0.564317 1.368383 2.863845 -7.601126 -58.619821 -3.132471 -5.897411 88.608340 -1.407339 -5.762252 -7.536910 -0.133700 0.000001 -69.777700 -2.271358 -1.427363 -4.661160 -0.851577 -1.339158 -3.343460 -3.599139 -1.424043 1.608360 4.931552 -5.809486 -4.469240 -1.691816 -0.162846 0.739463 0.000000 0.000000 0.000000 6.480294 -2.524175 1.913420 -30.196894 -25.275259 -4.508477 -0.646808 -63.737442 -0.048584 7.329554 -1.094700 -0.098500 -0.172497 0.422401 0.000000 0.000000 0.000000 0.000000 0.000000 0.000000 0.000000 5.258773 -3.365019 3.851343 22.765572 38.323384 -0.998737 1.801534 36.126461 -0.006816 -3.611655 3.865938 -0.135619 0.146391 -0.280810 0.000000 0.000000 0.000000 0.000000 0.000000 0.000000 0.000000 
6.917913 21.258810 1.112393 68.071848 -84.761819 -29.442289 -11.099384 0.074572 2.717269 -12.664147 -4.701739 -66.026049 4.257767 5.145372 98.499375 2.736238 14.905384 -3.920276 1.155500 -0.000000 -45.650300 12.344055 1.049082 1.331290 3.582552 -7.523008 -64.020686 -3.964768 -6.582192 94.990093 -1.331174 -5.293792 -10.112672 0.094400 -0.000000 -68.134101 -2.212549 -1.479007 -4.395964 -0.814139 -1.392593 -3.279620 -3.454791 -1.481131 1.671546 4.821576 -5.985729 -4.681241 -1.555343 -0.149313 0.663872 0.000000 0.000000 0.000000 6.621574 -2.635807 2.077121 -28.940433 -25.171308 -4.535208 -0.692299 -62.841465 -0.046546 7.087225 -0.944565 -0.085347 -0.174817 0.416099 0.000000 0.000000 0.000000 0.000000 0.000000 0.000000 0.000000 4.839937 -3.473341 3.971956 20.842927 38.104344 -0.740508 1.836644 36.181703 -0.005763 -3.366795 3.726477 -0.122543 0.148495 -0.278643 0.000000 0.000000 0.000000 0.000000 0.000000 0.000000 0.000000 
6.794900 21.357324 1.104795 68.420427 -84.828074 -28.395721 -11.022629 -0.466537 2.665429 -13.166180 -5.451135 -71.326332 5.207698 5.718336 104.443721 2.840876 15.361755 -6.744808 0.546400 0.000001 -42.464400 12.284522 1.559154 1.384212 4.318479 -7.245565 -69.722606 -4.904076 -7.248671 100.945431 -1.204475 -4.497062 -12.405466 0.251300 0.000000 -66.810700 -2.118160 -1.532017 -4.285778 -0.764568 -1.451363 -3.243531 -3.298168 -1.544974 1.769066 4.673973 -6.238854 -4.902445 -1.407215 -0.134745 0.586088 0.000000 0.000000 0.000000 6.791484 -2.667056 2.244423 -27.409297 -24.906180 -4.369311 -0.736212 -62.200997 -0.043878 6.756551 -0.749980 -0.069289 -0.176801 0.408137 0.000000 0.000000 0.000000 0.000000 0.000000 0.000000 0.000000 4.359056 -3.657542 4.075664 18.668615 37.743571 -0.165220 1.859483 36.654656 -0.004844 -3.165395 3.596874 -0.111761 0.151133 -0.275922 0.000000 0.000000 0.000000 0.000000 0.000000 0.000000 0.000000 
6.668485 21.437706 1.099241 68.774411 -84.900793 -27.195263 -10.885501 -1.032289 2.695182 -13.525089 -6.444172 -76.886614 6.239758 6.259773 109.861753 2.908417 15.541172 -9.282545 -0.043700 -0.000000 -39.469800 12.166731 2.087866 1.533455 5.019099 -6.748736 -75.703233 -5.931795 -7.883449 106.436265 -1.038798 -3.440264 -14.418829 0.318800 -0.000001 -65.906900 -1.993945 -1.583686 -4.324688 -0.704586 -1.512117 -3.236475 -3.133309 -1.612215 1.895504 4.499852 -6.558909 -5.128596 -1.250613 -0.119382 0.507217 0.000000 0.000000 0.000000 6.967729 -2.598396 2.415203 -25.635523 -24.490158 -4.056605 -0.777482 -61.810803 -0.040892 6.372820 -0.530952 -0.052323 -0.178645 0.399114 0.000000 0.000000 0.000000 0.000000 0.000000 0.000000 0.000000 3.834254 -3.909948 4.158861 16.287704 37.193024 0.568908 1.862797 37.572933 -0.004241 -3.032332 3.469244 -0.103674 0.154221 -0.273237 0.000000 0.000000 0.000000 0.000000 0.000000 0.000000 0.000000 
6.538240 21.500564 1.095504 69.164272 -84.979065 -25.900941 -10.682260 -1.605889 2.792082 -13.702144 -7.655577 -82.668925 7.321901 6.763040 114.707177 2.937112 15.459074 -11.526814 -0.578000 0.000000 -36.801700 11.987884 2.624084 1.775422 5.625128 -6.031145 -81.918522 -7.021251 -8.475287 111.429530 -0.849843 -2.213467 -16.164178 0.296700 0.000000 -65.478700 -1.846729 -1.632497 -4.488113 -0.636566 -1.572586 -3.255192 -2.965045 -1.680351 2.044794 4.314291 -6.951999 -5.360820 -1.089254 -0.103412 0.426611 0.000000 0.000000 0.000000 7.141378 -2.411451 2.588085 -23.670134 -23.941722 -3.657516 -0.814605 -61.644888 -0.037899 5.971452 -0.300761 -0.036254 -0.180517 0.389656 0.000000 0.000000 0.000000 0.000000 0.000000 0.000000 0.000000 3.293509 -4.238123 4.219361 13.745848 36.446731 1.294886 1.841472 38.905154 -0.004139 -3.001792 3.341505 -0.099285 0.157969 -0.271270 0.000000 0.000000 0.000000 0.000000 0.000000 0.000000 0.000000 
6.404001 21.547010 1.093135 69.611567 -85.060700 -24.572271 -10.412882 -2.165412 2.933844 -13.665277 -9.039883 -88.619137 8.414999 7.225752 118.945369 2.928904 15.147234 -13.476608 -1.031500 0.000000 -34.546699 11.749541 3.152834 2.098090 6.076847 -5.111750 -88.308978 -8.139039 -9.016478 115.898334 -0.655827 -0.919308 -17.666445 0.200799 0.000000 -65.517700 -1.685625 -1.678190 -4.739319 -0.563491 -1.631539 -3.293485 -2.797573 -1.747802 2.209167 4.132745 -7.423530 -5.601986 -0.925889 -0.086923 0.342976 0.000000 0.000000 0.000000 7.315924 -2.092161 2.761897 -21.580138 -23.282065 -3.235348 -0.846646 -61.660787 -0.035156 5.581382 -0.062287 -0.021483 -0.182581 0.380285 0.000000 0.000000 0.000000 0.000000 0.000000 0.000000 0.000000 2.761038 -4.645877 4.255932 11.111913 35.504368 1.847315 1.794216 40.589416 -0.004681 -3.093151 3.199485 -0.098192 0.162598 -0.270496 0.000000 0.000000 0.000000 0.000000 0.000000 0.000000 0.000000 
6.265523 21.577896 1.091591 70.125333 -85.142688 -23.258785 -10.083393 -2.686450 3.093952 -13.395791 -10.536762 -94.671753 9.477428 7.650374 122.558043 2.889305 14.651104 -15.136201 -1.391800 0.000000 -32.746700 11.457597 3.656707 2.482062 6.323396 -4.030124 -94.806616 -9.249435 -9.504237 119.829943 -0.475798 0.334605 -18.963363 0.057500 -0.000000 -65.954100 -1.520695 -1.721789 -5.035243 -0.488711 -1.688962 -3.342956 -2.634771 -1.814134 2.380921 3.970350 -7.978726 -5.856201 -0.762765 -0.069942 0.254568 0.000000 0.000000 0.000000 7.504608 -1.631189 2.935466 -19.441676 -22.529530 -2.848250 -0.873525 -61.810734 -0.032839 5.221398 0.190331 -0.007714 -0.184950 0.371359 0.000000 0.000000 0.000000 0.000000 0.000000 0.000000 0.000000 2.259223 -5.135333 4.268830 8.464240 34.373081 2.096567 1.723939 42.546151 -0.005965 -3.309607 3.019062 -0.099502 0.168312 -0.271031 0.000000 0.000000 0.000000 0.000000 0.000000 0.000000 0.000000 
6.122722 21.595225 1.090202 70.697592 -85.221951 -21.994347 -9.704785 -3.145542 3.244712 -12.892639 -12.077817 -100.754982 10.470359 8.044155 125.544527 2.826776 14.026480 -16.515215 -1.657800 -0.000000 -31.413800 11.121181 4.118000 2.902897 6.330545 -2.839345 -101.341884 -10.316459 -9.940732 123.220188 -0.327663 1.445181 -20.102806 -0.101300 0.000000 -66.664300 -1.359806 -1.766017 -5.331154 -0.415202 -1.746749 -3.393614 -2.480706 -1.880793 2.554224 3.842025 -8.627401 -6.129196 -0.601942 -0.052455 0.159159 0.000000 0.000000 0.000000 7.724672 -1.021157 3.107426 -17.330343 -21.698032 -2.544260 -0.895830 -62.051203 -0.031021 4.896744 0.468389 0.005453 -0.187586 0.363074 0.000000 0.000000 0.000000 0.000000 0.000000 0.000000 0.000000 1.811272 -5.714119 4.259852 5.868119 33.079486 1.969679 1.636434 44.684643 -0.008048 -3.645862 2.780691 -0.101516 0.175314 -0.272721 0.000000 0.000000 0.000000 0.000000 0.000000 0.000000 0.000000 
5.975533 21.600030 1.088274 71.312673 -85.296326 -20.804343 -9.291689 -3.522639 3.361885 -12.173654 -13.594051 -106.794955 11.362409 8.417977 127.921588 2.751542 13.334042 -17.629808 -1.838100 0.000000 -30.532600 10.752251 4.520540 3.334807 6.083661 -1.598374 -107.847849 -11.309586 -10.332296 126.081010 -0.226558 2.321453 -21.133993 -0.242400 0.000000 -67.489500 -1.210445 -1.813675 -5.587869 -0.345620 -1.806943 -3.436426 -2.338097 -1.949434 2.723032 3.757347 -9.364040 -6.423884 -0.444291 -0.034416 0.055437 0.000000 0.000000 0.000000 7.992848 -0.266869 3.277124 -15.319425 -20.785414 -2.356977 -0.914784 -62.351753 -0.029639 4.594703 0.779788 0.018414 -0.190209 0.355529 0.000000 0.000000 0.000000 0.000000 0.000000 0.000000 0.000000 1.427290 -6.373485 4.232443 3.402547 31.631117 1.434925 1.538946 46.934228 -0.010909 -4.070087 2.455773 -0.101035 0.183442 -0.275053 0.000000 0.000000 0.000000 0.000000 0.000000 0.000000 0.000000 
5.823736 21.593901 1.085297 71.913396 -85.364454 -19.661825 -8.860256 -3.802752 3.428781 -11.269333 -15.028352 -112.725567 12.132073 8.784024 129.718295 2.674843 12.637740 -18.494559 -1.946700 -0.000001 -30.078200 10.363897 4.850865 3.753354 5.590006 -0.364108 -114.266779 -12.203006 -10.688400 128.426852 -0.183000 2.896150 -22.094227 -0.335400 -0.000000 -68.255299 -1.071090 -1.869831 -5.775830 -0.280782 -1.874756 -3.463298 -2.211519 -2.024946 2.885067 3.725110 -10.188946 -6.741289 -0.292562 -0.015967 -0.057265 0.000000 0.000000 0.000000 8.317696 0.624780 3.441690 -13.466729 -19.769975 -2.304197 -0.930631 -62.707912 -0.028695 4.313661 1.133116 0.031570 -0.192739 0.348713 0.000000 0.000000 0.000000 0.000000 0.000000 0.000000 0.000000 1.127950 -7.117186 4.190679 1.090920 30.070668 0.527981 1.437797 49.225829 -0.014494 -4.563557 2.051298 -0.096357 0.192638 -0.277628 0.000000 0.000000 0.000000 0.000000 0.000000 0.000000 0.000000 
